<?xml version="1.0" encoding="UTF-8" standalone="no"?>
<!DOCTYPE svg PUBLIC "-//W3C//DTD SVG 1.1//EN"
 "http://www.w3.org/Graphics/SVG/1.1/DTD/svg11.dtd">
<!-- Generated by graphviz version 2.47.0 (20210316.0004)
 -->
<!-- Title: dependencies Pages: 1 -->
<svg width="2325pt" height="284pt"
 viewBox="0.00 0.00 2325.00 284.00" xmlns="http://www.w3.org/2000/svg" xmlns:xlink="http://www.w3.org/1999/xlink">
<g id="graph0" class="graph" transform="scale(1 1) rotate(0) translate(4 280)">
<title>dependencies</title>
<polygon fill="white" stroke="transparent" points="-4,4 -4,-280 2321,-280 2321,4 -4,4"/>
<text text-anchor="start" x="1137.51" y="-42.4" font-family="Times-12" font-weight="bold" font-size="14.00">Legend</text>
<polygon fill="#ffffb3" stroke="transparent" points="924.5,-10 924.5,-30 944.5,-30 944.5,-10 924.5,-10"/>
<text text-anchor="start" x="948.13" y="-15.4" font-family="Times-12" font-size="14.00"> &#160;Declarations</text>
<polygon fill="#8dd3c7" stroke="transparent" points="1037.5,-10 1037.5,-30 1057.5,-30 1057.5,-10 1037.5,-10"/>
<text text-anchor="start" x="1061.23" y="-15.4" font-family="Times-12" font-size="14.00"> &#160;Module</text>
<polygon fill="#80b1d3" stroke="transparent" points="1123.5,-10 1123.5,-30 1143.5,-30 1143.5,-10 1123.5,-10"/>
<text text-anchor="start" x="1147.28" y="-15.4" font-family="Times-12" font-size="14.00"> &#160;Bootstrap</text>
<polygon fill="#fdb462" stroke="transparent" points="1220.5,-10 1220.5,-30 1240.5,-30 1240.5,-10 1220.5,-10"/>
<text text-anchor="start" x="1244.17" y="-15.4" font-family="Times-12" font-size="14.00"> &#160;Providers</text>
<polygon fill="#fb8072" stroke="transparent" points="1316.5,-10 1316.5,-30 1336.5,-30 1336.5,-10 1316.5,-10"/>
<text text-anchor="start" x="1340.23" y="-15.4" font-family="Times-12" font-size="14.00"> &#160;Exports</text>
<g id="clust1" class="cluster">
<title>cluster_AppModule</title>
<polygon fill="none" stroke="black" stroke-dasharray="1,5" points="8,-70 8,-268 2309,-268 2309,-70 8,-70"/>
</g>
<g id="clust11" class="cluster">
<title>cluster_AppModule_imports</title>
<polygon fill="none" stroke="black" points="1781,-78 1781,-130 2301,-130 2301,-78 1781,-78"/>
</g>
<g id="clust13" class="cluster">
<title>cluster_AppModule_bootstrap</title>
<polygon fill="none" stroke="black" points="1009,-208 1009,-260 1133,-260 1133,-208 1009,-208"/>
</g>
<g id="clust14" class="cluster">
<title>cluster_AppModule_providers</title>
<polygon fill="none" stroke="black" points="1213,-78 1213,-130 1773,-130 1773,-78 1213,-78"/>
</g>
<g id="clust2" class="cluster">
<title>cluster_AppModule_declarations</title>
<polygon fill="none" stroke="black" points="16,-78 16,-130 1205,-130 1205,-78 16,-78"/>
</g>
<!-- AppComponent -->
<g id="node1" class="node">
<title>AppComponent</title>
<polygon fill="#ffffb3" stroke="black" points="1196.94,-122 1091.06,-122 1091.06,-86 1196.94,-86 1196.94,-122"/>
<text text-anchor="middle" x="1144" y="-99.8" font-family="Times,serif" font-size="14.00">AppComponent</text>
</g>
<!-- AppModule -->
<g id="node9" class="node">
<title>AppModule</title>
<polygon fill="#8dd3c7" stroke="black" points="1112.66,-187 1109.66,-191 1088.66,-191 1085.66,-187 1029.34,-187 1029.34,-151 1112.66,-151 1112.66,-187"/>
<text text-anchor="middle" x="1071" y="-164.8" font-family="Times,serif" font-size="14.00">AppModule</text>
</g>
<!-- AppComponent&#45;&gt;AppModule -->
<g id="edge1" class="edge">
<title>AppComponent&#45;&gt;AppModule</title>
<path fill="none" stroke="black" d="M1102.05,-122.11C1102.05,-122.11 1102.05,-140.99 1102.05,-140.99"/>
<polygon fill="black" stroke="black" points="1098.55,-140.99 1102.05,-150.99 1105.55,-140.99 1098.55,-140.99"/>
</g>
<!-- ListAccountComponent -->
<g id="node2" class="node">
<title>ListAccountComponent</title>
<polygon fill="#ffffb3" stroke="black" points="1073.04,-122 922.96,-122 922.96,-86 1073.04,-86 1073.04,-122"/>
<text text-anchor="middle" x="998" y="-99.8" font-family="Times,serif" font-size="14.00">ListAccountComponent</text>
</g>
<!-- ListAccountComponent&#45;&gt;AppModule -->
<g id="edge2" class="edge">
<title>ListAccountComponent&#45;&gt;AppModule</title>
<path fill="none" stroke="black" d="M1051.22,-122.11C1051.22,-122.11 1051.22,-140.99 1051.22,-140.99"/>
<polygon fill="black" stroke="black" points="1047.72,-140.99 1051.22,-150.99 1054.72,-140.99 1047.72,-140.99"/>
</g>
<!-- LoginComponent -->
<g id="node3" class="node">
<title>LoginComponent</title>
<polygon fill="#ffffb3" stroke="black" points="904.28,-122 789.72,-122 789.72,-86 904.28,-86 904.28,-122"/>
<text text-anchor="middle" x="847" y="-99.8" font-family="Times,serif" font-size="14.00">LoginComponent</text>
</g>
<!-- LoginComponent&#45;&gt;AppModule -->
<g id="edge3" class="edge">
<title>LoginComponent&#45;&gt;AppModule</title>
<path fill="none" stroke="black" d="M847,-122.24C847,-137.57 847,-157 847,-157 847,-157 1019.13,-157 1019.13,-157"/>
<polygon fill="black" stroke="black" points="1019.13,-160.5 1029.13,-157 1019.13,-153.5 1019.13,-160.5"/>
</g>
<!-- NabBarComponent -->
<g id="node4" class="node">
<title>NabBarComponent</title>
<polygon fill="#ffffb3" stroke="black" points="771.37,-122 646.63,-122 646.63,-86 771.37,-86 771.37,-122"/>
<text text-anchor="middle" x="709" y="-99.8" font-family="Times,serif" font-size="14.00">NabBarComponent</text>
</g>
<!-- NabBarComponent&#45;&gt;AppModule -->
<g id="edge4" class="edge">
<title>NabBarComponent&#45;&gt;AppModule</title>
<path fill="none" stroke="black" d="M709,-122.03C709,-139.06 709,-162 709,-162 709,-162 1019.12,-162 1019.12,-162"/>
<polygon fill="black" stroke="black" points="1019.12,-165.5 1029.12,-162 1019.12,-158.5 1019.12,-165.5"/>
</g>
<!-- OperationsComponent -->
<g id="node5" class="node">
<title>OperationsComponent</title>
<polygon fill="#ffffb3" stroke="black" points="628.25,-122 485.75,-122 485.75,-86 628.25,-86 628.25,-122"/>
<text text-anchor="middle" x="557" y="-99.8" font-family="Times,serif" font-size="14.00">OperationsComponent</text>
</g>
<!-- OperationsComponent&#45;&gt;AppModule -->
<g id="edge5" class="edge">
<title>OperationsComponent&#45;&gt;AppModule</title>
<path fill="none" stroke="black" d="M557,-122.22C557,-140.83 557,-167 557,-167 557,-167 1018.94,-167 1018.94,-167"/>
<polygon fill="black" stroke="black" points="1018.94,-170.5 1028.94,-167 1018.94,-163.5 1018.94,-170.5"/>
</g>
<!-- VirementComponent -->
<g id="node6" class="node">
<title>VirementComponent</title>
<polygon fill="#ffffb3" stroke="black" points="468.2,-122 333.8,-122 333.8,-86 468.2,-86 468.2,-122"/>
<text text-anchor="middle" x="401" y="-99.8" font-family="Times,serif" font-size="14.00">VirementComponent</text>
</g>
<!-- VirementComponent&#45;&gt;AppModule -->
<g id="edge6" class="edge">
<title>VirementComponent&#45;&gt;AppModule</title>
<path fill="none" stroke="black" d="M401,-122.22C401,-142.37 401,-172 401,-172 401,-172 1019.34,-172 1019.34,-172"/>
<polygon fill="black" stroke="black" points="1019.34,-175.5 1029.34,-172 1019.34,-168.5 1019.34,-175.5"/>
</g>
<!-- FooterComponent -->
<g id="node7" class="node">
<title>FooterComponent</title>
<polygon fill="#ffffb3" stroke="black" points="315.88,-122 198.12,-122 198.12,-86 315.88,-86 315.88,-122"/>
<text text-anchor="middle" x="257" y="-99.8" font-family="Times,serif" font-size="14.00">FooterComponent</text>
</g>
<!-- FooterComponent&#45;&gt;AppModule -->
<g id="edge7" class="edge">
<title>FooterComponent&#45;&gt;AppModule</title>
<path fill="none" stroke="black" d="M257,-122.04C257,-143.66 257,-177 257,-177 257,-177 1019.23,-177 1019.23,-177"/>
<polygon fill="black" stroke="black" points="1019.23,-180.5 1029.23,-177 1019.23,-173.5 1019.23,-180.5"/>
</g>
<!-- ContactFormComponent -->
<g id="node8" class="node">
<title>ContactFormComponent</title>
<polygon fill="#ffffb3" stroke="black" points="179.71,-122 24.29,-122 24.29,-86 179.71,-86 179.71,-122"/>
<text text-anchor="middle" x="102" y="-99.8" font-family="Times,serif" font-size="14.00">ContactFormComponent</text>
</g>
<!-- ContactFormComponent&#45;&gt;AppModule -->
<g id="edge8" class="edge">
<title>ContactFormComponent&#45;&gt;AppModule</title>
<path fill="none" stroke="black" d="M102,-122.09C102,-145.13 102,-182 102,-182 102,-182 1019.05,-182 1019.05,-182"/>
<polygon fill="black" stroke="black" points="1019.05,-185.5 1029.05,-182 1019.05,-178.5 1019.05,-185.5"/>
</g>
<!-- AppComponent  -->
<g id="node14" class="node">
<title>AppComponent </title>
<polygon fill="#80b1d3" stroke="black" points="1125.44,-252 1016.56,-252 1016.56,-216 1125.44,-216 1125.44,-252"/>
<text text-anchor="middle" x="1071" y="-229.8" font-family="Times,serif" font-size="14.00">AppComponent </text>
</g>
<!-- AppModule&#45;&gt;AppComponent  -->
<g id="edge13" class="edge">
<title>AppModule&#45;&gt;AppComponent </title>
<path fill="none" stroke="black" stroke-dasharray="1,5" d="M1071,-187.11C1071,-187.11 1071,-205.99 1071,-205.99"/>
<polygon fill="black" stroke="black" points="1067.5,-205.99 1071,-215.99 1074.5,-205.99 1067.5,-205.99"/>
</g>
<!-- HttpClientModule -->
<g id="node10" class="node">
<title>HttpClientModule</title>
<polygon fill="#8dd3c7" stroke="black" points="2293.16,-122 2290.16,-126 2269.16,-126 2266.16,-122 2174.84,-122 2174.84,-86 2293.16,-86 2293.16,-122"/>
<text text-anchor="middle" x="2234" y="-99.8" font-family="Times,serif" font-size="14.00">HttpClientModule</text>
</g>
<!-- HttpClientModule&#45;&gt;AppModule -->
<g id="edge9" class="edge">
<title>HttpClientModule&#45;&gt;AppModule</title>
<path fill="none" stroke="black" d="M2234,-122.09C2234,-145.13 2234,-182 2234,-182 2234,-182 1122.73,-182 1122.73,-182"/>
<polygon fill="black" stroke="black" points="1122.73,-178.5 1112.73,-182 1122.73,-185.5 1122.73,-178.5"/>
</g>
<!-- BrowserModule -->
<g id="node11" class="node">
<title>BrowserModule</title>
<polygon fill="#8dd3c7" stroke="black" points="2156.47,-122 2153.47,-126 2132.47,-126 2129.47,-122 2049.53,-122 2049.53,-86 2156.47,-86 2156.47,-122"/>
<text text-anchor="middle" x="2103" y="-99.8" font-family="Times,serif" font-size="14.00">BrowserModule</text>
</g>
<!-- BrowserModule&#45;&gt;AppModule -->
<g id="edge10" class="edge">
<title>BrowserModule&#45;&gt;AppModule</title>
<path fill="none" stroke="black" d="M2103,-122.04C2103,-143.66 2103,-177 2103,-177 2103,-177 1122.73,-177 1122.73,-177"/>
<polygon fill="black" stroke="black" points="1122.73,-173.5 1112.73,-177 1122.73,-180.5 1122.73,-173.5"/>
</g>
<!-- AppRoutingModule -->
<g id="node12" class="node">
<title>AppRoutingModule</title>
<polygon fill="#8dd3c7" stroke="black" points="2031.27,-122 2028.27,-126 2007.27,-126 2004.27,-122 1902.73,-122 1902.73,-86 2031.27,-86 2031.27,-122"/>
<text text-anchor="middle" x="1967" y="-99.8" font-family="Times,serif" font-size="14.00">AppRoutingModule</text>
</g>
<!-- AppRoutingModule&#45;&gt;AppModule -->
<g id="edge11" class="edge">
<title>AppRoutingModule&#45;&gt;AppModule</title>
<path fill="none" stroke="black" d="M1967,-122.22C1967,-142.37 1967,-172 1967,-172 1967,-172 1122.72,-172 1122.72,-172"/>
<polygon fill="black" stroke="black" points="1122.72,-168.5 1112.72,-172 1122.72,-175.5 1122.72,-168.5"/>
</g>
<!-- FormsModule -->
<g id="node13" class="node">
<title>FormsModule</title>
<polygon fill="#8dd3c7" stroke="black" points="1884.83,-122 1881.83,-126 1860.83,-126 1857.83,-122 1789.17,-122 1789.17,-86 1884.83,-86 1884.83,-122"/>
<text text-anchor="middle" x="1837" y="-99.8" font-family="Times,serif" font-size="14.00">FormsModule</text>
</g>
<!-- FormsModule&#45;&gt;AppModule -->
<g id="edge12" class="edge">
<title>FormsModule&#45;&gt;AppModule</title>
<path fill="none" stroke="black" d="M1837,-122.22C1837,-140.83 1837,-167 1837,-167 1837,-167 1122.73,-167 1122.73,-167"/>
<polygon fill="black" stroke="black" points="1122.73,-163.5 1112.73,-167 1122.73,-170.5 1122.73,-163.5"/>
</g>
<!-- AccountsService -->
<g id="node15" class="node">
<title>AccountsService</title>
<ellipse fill="#fdb462" stroke="black" cx="1689" cy="-104" rx="76.42" ry="18"/>
<text text-anchor="middle" x="1689" y="-99.8" font-family="Times,serif" font-size="14.00">AccountsService</text>
</g>
<!-- AccountsService&#45;&gt;AppModule -->
<g id="edge14" class="edge">
<title>AccountsService&#45;&gt;AppModule</title>
<path fill="none" stroke="black" d="M1689,-122.03C1689,-139.06 1689,-162 1689,-162 1689,-162 1122.99,-162 1122.99,-162"/>
<polygon fill="black" stroke="black" points="1122.99,-158.5 1112.99,-162 1122.99,-165.5 1122.99,-158.5"/>
</g>
<!-- { provide: LOCALE_ID, useValue: &#39;fr&#45;FR&#39; } -->
<g id="node16" class="node">
<title>{ provide: LOCALE_ID, useValue: &#39;fr&#45;FR&#39; }</title>
<ellipse fill="#fdb462" stroke="black" cx="1408" cy="-104" rx="186.63" ry="18"/>
<text text-anchor="middle" x="1408" y="-99.8" font-family="Times,serif" font-size="14.00">{ provide: LOCALE_ID, useValue: &#39;fr&#45;FR&#39; }</text>
</g>
<!-- { provide: LOCALE_ID, useValue: &#39;fr&#45;FR&#39; }&#45;&gt;AppModule -->
<g id="edge15" class="edge">
<title>{ provide: LOCALE_ID, useValue: &#39;fr&#45;FR&#39; }&#45;&gt;AppModule</title>
<path fill="none" stroke="black" d="M1408,-122.24C1408,-137.57 1408,-157 1408,-157 1408,-157 1122.66,-157 1122.66,-157"/>
<polygon fill="black" stroke="black" points="1122.66,-153.5 1112.66,-157 1122.66,-160.5 1122.66,-153.5"/>
</g>
</g>
</svg>
