<?xml version="1.0" encoding="UTF-8" standalone="no"?>
<!DOCTYPE svg PUBLIC "-//W3C//DTD SVG 1.1//EN"
 "http://www.w3.org/Graphics/SVG/1.1/DTD/svg11.dtd">
<!-- Generated by graphviz version 2.47.0 (20210316.0004)
 -->
<!-- Title: dependencies Pages: 1 -->
<svg width="2669pt" height="290pt"
 viewBox="0.00 0.00 2669.00 290.00" xmlns="http://www.w3.org/2000/svg" xmlns:xlink="http://www.w3.org/1999/xlink">
<g id="graph0" class="graph" transform="scale(1 1) rotate(0) translate(4 286)">
<title>dependencies</title>
<polygon fill="white" stroke="transparent" points="-4,4 -4,-286 2665,-286 2665,4 -4,4"/>
<text text-anchor="start" x="1309.51" y="-42.4" font-family="Times-12" font-weight="bold" font-size="14.00">Legend</text>
<polygon fill="#ffffb3" stroke="transparent" points="1096.5,-10 1096.5,-30 1116.5,-30 1116.5,-10 1096.5,-10"/>
<text text-anchor="start" x="1120.13" y="-15.4" font-family="Times-12" font-size="14.00"> &#160;Declarations</text>
<polygon fill="#8dd3c7" stroke="transparent" points="1209.5,-10 1209.5,-30 1229.5,-30 1229.5,-10 1209.5,-10"/>
<text text-anchor="start" x="1233.23" y="-15.4" font-family="Times-12" font-size="14.00"> &#160;Module</text>
<polygon fill="#80b1d3" stroke="transparent" points="1295.5,-10 1295.5,-30 1315.5,-30 1315.5,-10 1295.5,-10"/>
<text text-anchor="start" x="1319.28" y="-15.4" font-family="Times-12" font-size="14.00"> &#160;Bootstrap</text>
<polygon fill="#fdb462" stroke="transparent" points="1392.5,-10 1392.5,-30 1412.5,-30 1412.5,-10 1392.5,-10"/>
<text text-anchor="start" x="1416.17" y="-15.4" font-family="Times-12" font-size="14.00"> &#160;Providers</text>
<polygon fill="#fb8072" stroke="transparent" points="1488.5,-10 1488.5,-30 1508.5,-30 1508.5,-10 1488.5,-10"/>
<text text-anchor="start" x="1512.23" y="-15.4" font-family="Times-12" font-size="14.00"> &#160;Exports</text>
<g id="clust1" class="cluster">
<title>cluster_AppModule</title>
<polygon fill="none" stroke="black" stroke-dasharray="1,5" points="8,-70 8,-274 2309,-274 2309,-70 8,-70"/>
</g>
<g id="clust2" class="cluster">
<title>cluster_AppModule_declarations</title>
<polygon fill="none" stroke="black" points="584,-78 584,-130 1773,-130 1773,-78 584,-78"/>
</g>
<g id="clust11" class="cluster">
<title>cluster_AppModule_imports</title>
<polygon fill="none" stroke="black" points="1781,-78 1781,-130 2301,-130 2301,-78 1781,-78"/>
</g>
<g id="clust13" class="cluster">
<title>cluster_AppModule_bootstrap</title>
<polygon fill="none" stroke="black" points="1284,-214 1284,-266 1408,-266 1408,-214 1284,-214"/>
</g>
<g id="clust14" class="cluster">
<title>cluster_AppModule_providers</title>
<polygon fill="none" stroke="black" points="16,-78 16,-130 576,-130 576,-78 16,-78"/>
</g>
<g id="clust15" class="cluster">
<title>cluster_AppRoutingModule</title>
<polygon fill="none" stroke="black" stroke-dasharray="1,5" points="2317,-138 2317,-206 2653,-206 2653,-138 2317,-138"/>
</g>
<g id="clust17" class="cluster">
<title>cluster_AppRoutingModule_imports</title>
<polygon fill="none" stroke="black" points="2451,-146 2451,-198 2645,-198 2645,-146 2451,-146"/>
</g>
<g id="clust18" class="cluster">
<title>cluster_AppRoutingModule_exports</title>
<polygon fill="none" stroke="black" points="2325,-146 2325,-198 2443,-198 2443,-146 2325,-146"/>
</g>
<!-- AppComponent -->
<g id="node1" class="node">
<title>AppComponent</title>
<polygon fill="#ffffb3" stroke="black" points="1764.94,-122 1659.06,-122 1659.06,-86 1764.94,-86 1764.94,-122"/>
<text text-anchor="middle" x="1712" y="-99.8" font-family="Times,serif" font-size="14.00">AppComponent</text>
</g>
<!-- AppModule -->
<g id="node9" class="node">
<title>AppModule</title>
<polygon fill="#8dd3c7" stroke="black" points="1387.66,-190 1384.66,-194 1363.66,-194 1360.66,-190 1304.34,-190 1304.34,-154 1387.66,-154 1387.66,-190"/>
<text text-anchor="middle" x="1346" y="-167.8" font-family="Times,serif" font-size="14.00">AppModule</text>
</g>
<!-- AppComponent&#45;&gt;AppModule -->
<g id="edge1" class="edge">
<title>AppComponent&#45;&gt;AppModule</title>
<path fill="none" stroke="black" d="M1712,-122.3C1712,-140.27 1712,-165 1712,-165 1712,-165 1397.98,-165 1397.98,-165"/>
<polygon fill="black" stroke="black" points="1397.98,-161.5 1387.98,-165 1397.98,-168.5 1397.98,-161.5"/>
</g>
<!-- ListAccountComponent -->
<g id="node2" class="node">
<title>ListAccountComponent</title>
<polygon fill="#ffffb3" stroke="black" points="1641.04,-122 1490.96,-122 1490.96,-86 1641.04,-86 1641.04,-122"/>
<text text-anchor="middle" x="1566" y="-99.8" font-family="Times,serif" font-size="14.00">ListAccountComponent</text>
</g>
<!-- ListAccountComponent&#45;&gt;AppModule -->
<g id="edge2" class="edge">
<title>ListAccountComponent&#45;&gt;AppModule</title>
<path fill="none" stroke="black" d="M1566,-122.03C1566,-138.4 1566,-160 1566,-160 1566,-160 1397.9,-160 1397.9,-160"/>
<polygon fill="black" stroke="black" points="1397.9,-156.5 1387.9,-160 1397.9,-163.5 1397.9,-156.5"/>
</g>
<!-- LoginComponent -->
<g id="node3" class="node">
<title>LoginComponent</title>
<polygon fill="#ffffb3" stroke="black" points="1472.28,-122 1357.72,-122 1357.72,-86 1472.28,-86 1472.28,-122"/>
<text text-anchor="middle" x="1415" y="-99.8" font-family="Times,serif" font-size="14.00">LoginComponent</text>
</g>
<!-- LoginComponent&#45;&gt;AppModule -->
<g id="edge3" class="edge">
<title>LoginComponent&#45;&gt;AppModule</title>
<path fill="none" stroke="black" d="M1372.72,-122.22C1372.72,-122.22 1372.72,-143.73 1372.72,-143.73"/>
<polygon fill="black" stroke="black" points="1369.22,-143.73 1372.72,-153.73 1376.22,-143.73 1369.22,-143.73"/>
</g>
<!-- NabBarComponent -->
<g id="node4" class="node">
<title>NabBarComponent</title>
<polygon fill="#ffffb3" stroke="black" points="1339.37,-122 1214.63,-122 1214.63,-86 1339.37,-86 1339.37,-122"/>
<text text-anchor="middle" x="1277" y="-99.8" font-family="Times,serif" font-size="14.00">NabBarComponent</text>
</g>
<!-- NabBarComponent&#45;&gt;AppModule -->
<g id="edge4" class="edge">
<title>NabBarComponent&#45;&gt;AppModule</title>
<path fill="none" stroke="black" d="M1321.8,-122.22C1321.8,-122.22 1321.8,-143.73 1321.8,-143.73"/>
<polygon fill="black" stroke="black" points="1318.3,-143.73 1321.8,-153.73 1325.3,-143.73 1318.3,-143.73"/>
</g>
<!-- OperationsComponent -->
<g id="node5" class="node">
<title>OperationsComponent</title>
<polygon fill="#ffffb3" stroke="black" points="1196.25,-122 1053.75,-122 1053.75,-86 1196.25,-86 1196.25,-122"/>
<text text-anchor="middle" x="1125" y="-99.8" font-family="Times,serif" font-size="14.00">OperationsComponent</text>
</g>
<!-- OperationsComponent&#45;&gt;AppModule -->
<g id="edge5" class="edge">
<title>OperationsComponent&#45;&gt;AppModule</title>
<path fill="none" stroke="black" d="M1125,-122.03C1125,-138.4 1125,-160 1125,-160 1125,-160 1294.17,-160 1294.17,-160"/>
<polygon fill="black" stroke="black" points="1294.17,-163.5 1304.17,-160 1294.17,-156.5 1294.17,-163.5"/>
</g>
<!-- VirementComponent -->
<g id="node6" class="node">
<title>VirementComponent</title>
<polygon fill="#ffffb3" stroke="black" points="1036.2,-122 901.8,-122 901.8,-86 1036.2,-86 1036.2,-122"/>
<text text-anchor="middle" x="969" y="-99.8" font-family="Times,serif" font-size="14.00">VirementComponent</text>
</g>
<!-- VirementComponent&#45;&gt;AppModule -->
<g id="edge6" class="edge">
<title>VirementComponent&#45;&gt;AppModule</title>
<path fill="none" stroke="black" d="M969,-122.3C969,-140.27 969,-165 969,-165 969,-165 1294.21,-165 1294.21,-165"/>
<polygon fill="black" stroke="black" points="1294.21,-168.5 1304.21,-165 1294.21,-161.5 1294.21,-168.5"/>
</g>
<!-- FooterComponent -->
<g id="node7" class="node">
<title>FooterComponent</title>
<polygon fill="#ffffb3" stroke="black" points="883.88,-122 766.12,-122 766.12,-86 883.88,-86 883.88,-122"/>
<text text-anchor="middle" x="825" y="-99.8" font-family="Times,serif" font-size="14.00">FooterComponent</text>
</g>
<!-- FooterComponent&#45;&gt;AppModule -->
<g id="edge7" class="edge">
<title>FooterComponent&#45;&gt;AppModule</title>
<path fill="none" stroke="black" d="M825,-122.03C825,-141.58 825,-170 825,-170 825,-170 1294.25,-170 1294.25,-170"/>
<polygon fill="black" stroke="black" points="1294.25,-173.5 1304.25,-170 1294.25,-166.5 1294.25,-173.5"/>
</g>
<!-- ContactFormComponent -->
<g id="node8" class="node">
<title>ContactFormComponent</title>
<polygon fill="#ffffb3" stroke="black" points="747.71,-122 592.29,-122 592.29,-86 747.71,-86 747.71,-122"/>
<text text-anchor="middle" x="670" y="-99.8" font-family="Times,serif" font-size="14.00">ContactFormComponent</text>
</g>
<!-- ContactFormComponent&#45;&gt;AppModule -->
<g id="edge8" class="edge">
<title>ContactFormComponent&#45;&gt;AppModule</title>
<path fill="none" stroke="black" d="M670,-122.28C670,-143.32 670,-175 670,-175 670,-175 1294.22,-175 1294.22,-175"/>
<polygon fill="black" stroke="black" points="1294.22,-178.5 1304.22,-175 1294.22,-171.5 1294.22,-178.5"/>
</g>
<!-- AppComponent  -->
<g id="node14" class="node">
<title>AppComponent </title>
<polygon fill="#80b1d3" stroke="black" points="1400.44,-258 1291.56,-258 1291.56,-222 1400.44,-222 1400.44,-258"/>
<text text-anchor="middle" x="1346" y="-235.8" font-family="Times,serif" font-size="14.00">AppComponent </text>
</g>
<!-- AppModule&#45;&gt;AppComponent  -->
<g id="edge13" class="edge">
<title>AppModule&#45;&gt;AppComponent </title>
<path fill="none" stroke="black" stroke-dasharray="1,5" d="M1346,-190.22C1346,-190.22 1346,-211.73 1346,-211.73"/>
<polygon fill="black" stroke="black" points="1342.5,-211.73 1346,-221.73 1349.5,-211.73 1342.5,-211.73"/>
</g>
<!-- HttpClientModule -->
<g id="node10" class="node">
<title>HttpClientModule</title>
<polygon fill="#8dd3c7" stroke="black" points="2146.16,-122 2143.16,-126 2122.16,-126 2119.16,-122 2027.84,-122 2027.84,-86 2146.16,-86 2146.16,-122"/>
<text text-anchor="middle" x="2087" y="-99.8" font-family="Times,serif" font-size="14.00">HttpClientModule</text>
</g>
<!-- HttpClientModule&#45;&gt;AppModule -->
<g id="edge9" class="edge">
<title>HttpClientModule&#45;&gt;AppModule</title>
<path fill="none" stroke="black" d="M2087,-122.01C2087,-144.49 2087,-180 2087,-180 2087,-180 1397.69,-180 1397.69,-180"/>
<polygon fill="black" stroke="black" points="1397.69,-176.5 1387.69,-180 1397.69,-183.5 1397.69,-176.5"/>
</g>
<!-- BrowserModule -->
<g id="node11" class="node">
<title>BrowserModule</title>
<polygon fill="#8dd3c7" stroke="black" points="2009.47,-122 2006.47,-126 1985.47,-126 1982.47,-122 1902.53,-122 1902.53,-86 2009.47,-86 2009.47,-122"/>
<text text-anchor="middle" x="1956" y="-99.8" font-family="Times,serif" font-size="14.00">BrowserModule</text>
</g>
<!-- BrowserModule&#45;&gt;AppModule -->
<g id="edge10" class="edge">
<title>BrowserModule&#45;&gt;AppModule</title>
<path fill="none" stroke="black" d="M1956,-122.28C1956,-143.32 1956,-175 1956,-175 1956,-175 1397.93,-175 1397.93,-175"/>
<polygon fill="black" stroke="black" points="1397.93,-171.5 1387.93,-175 1397.93,-178.5 1397.93,-171.5"/>
</g>
<!-- AppRoutingModule -->
<g id="node12" class="node">
<title>AppRoutingModule</title>
<polygon fill="#8dd3c7" stroke="black" points="2293.27,-122 2290.27,-126 2269.27,-126 2266.27,-122 2164.73,-122 2164.73,-86 2293.27,-86 2293.27,-122"/>
<text text-anchor="middle" x="2229" y="-99.8" font-family="Times,serif" font-size="14.00">AppRoutingModule</text>
</g>
<!-- AppRoutingModule&#45;&gt;AppModule -->
<g id="edge11" class="edge">
<title>AppRoutingModule&#45;&gt;AppModule</title>
<path fill="none" stroke="black" d="M2229,-122.38C2229,-146.28 2229,-185 2229,-185 2229,-185 1397.7,-185 1397.7,-185"/>
<polygon fill="black" stroke="black" points="1397.7,-181.5 1387.7,-185 1397.7,-188.5 1397.7,-181.5"/>
</g>
<!-- RouterModule  -->
<g id="node18" class="node">
<title>RouterModule </title>
<polygon fill="#fb8072" stroke="black" points="2434.65,-190 2333.35,-190 2333.35,-154 2434.65,-154 2434.65,-190"/>
<text text-anchor="middle" x="2384" y="-167.8" font-family="Times,serif" font-size="14.00">RouterModule </text>
</g>
<!-- AppRoutingModule&#45;&gt;RouterModule  -->
<g id="edge17" class="edge">
<title>AppRoutingModule&#45;&gt;RouterModule </title>
<path fill="none" stroke="black" stroke-dasharray="5,2" d="M2293.39,-110C2335.97,-110 2384,-110 2384,-110 2384,-110 2384,-143.73 2384,-143.73"/>
<polygon fill="black" stroke="black" points="2380.5,-143.73 2384,-153.73 2387.5,-143.73 2380.5,-143.73"/>
</g>
<!-- FormsModule -->
<g id="node13" class="node">
<title>FormsModule</title>
<polygon fill="#8dd3c7" stroke="black" points="1884.83,-122 1881.83,-126 1860.83,-126 1857.83,-122 1789.17,-122 1789.17,-86 1884.83,-86 1884.83,-122"/>
<text text-anchor="middle" x="1837" y="-99.8" font-family="Times,serif" font-size="14.00">FormsModule</text>
</g>
<!-- FormsModule&#45;&gt;AppModule -->
<g id="edge12" class="edge">
<title>FormsModule&#45;&gt;AppModule</title>
<path fill="none" stroke="black" d="M1837,-122.03C1837,-141.58 1837,-170 1837,-170 1837,-170 1397.86,-170 1397.86,-170"/>
<polygon fill="black" stroke="black" points="1397.86,-166.5 1387.86,-170 1397.86,-173.5 1397.86,-166.5"/>
</g>
<!-- AccountsService -->
<g id="node15" class="node">
<title>AccountsService</title>
<ellipse fill="#fdb462" stroke="black" cx="492" cy="-104" rx="76.42" ry="18"/>
<text text-anchor="middle" x="492" y="-99.8" font-family="Times,serif" font-size="14.00">AccountsService</text>
</g>
<!-- AccountsService&#45;&gt;AppModule -->
<g id="edge14" class="edge">
<title>AccountsService&#45;&gt;AppModule</title>
<path fill="none" stroke="black" d="M492,-122.01C492,-144.49 492,-180 492,-180 492,-180 1294.23,-180 1294.23,-180"/>
<polygon fill="black" stroke="black" points="1294.23,-183.5 1304.23,-180 1294.23,-176.5 1294.23,-183.5"/>
</g>
<!-- { provide: LOCALE_ID, useValue: &#39;fr&#45;FR&#39; } -->
<g id="node16" class="node">
<title>{ provide: LOCALE_ID, useValue: &#39;fr&#45;FR&#39; }</title>
<ellipse fill="#fdb462" stroke="black" cx="211" cy="-104" rx="186.63" ry="18"/>
<text text-anchor="middle" x="211" y="-99.8" font-family="Times,serif" font-size="14.00">{ provide: LOCALE_ID, useValue: &#39;fr&#45;FR&#39; }</text>
</g>
<!-- { provide: LOCALE_ID, useValue: &#39;fr&#45;FR&#39; }&#45;&gt;AppModule -->
<g id="edge15" class="edge">
<title>{ provide: LOCALE_ID, useValue: &#39;fr&#45;FR&#39; }&#45;&gt;AppModule</title>
<path fill="none" stroke="black" d="M211,-122.38C211,-146.28 211,-185 211,-185 211,-185 1294.26,-185 1294.26,-185"/>
<polygon fill="black" stroke="black" points="1294.26,-188.5 1304.26,-185 1294.26,-181.5 1294.26,-188.5"/>
</g>
<!-- RouterModule.forRoot(args) -->
<g id="node17" class="node">
<title>RouterModule.forRoot(args)</title>
<polygon fill="#8dd3c7" stroke="black" points="2636.84,-190 2633.84,-194 2612.84,-194 2609.84,-190 2459.16,-190 2459.16,-154 2636.84,-154 2636.84,-190"/>
<text text-anchor="middle" x="2548" y="-167.8" font-family="Times,serif" font-size="14.00">RouterModule.forRoot(args)</text>
</g>
<!-- RouterModule.forRoot(args)&#45;&gt;AppRoutingModule -->
<g id="edge16" class="edge">
<title>RouterModule.forRoot(args)&#45;&gt;AppRoutingModule</title>
<path fill="none" stroke="black" d="M2548,-153.71C2548,-131.79 2548,-98 2548,-98 2548,-98 2303.55,-98 2303.55,-98"/>
<polygon fill="black" stroke="black" points="2303.55,-94.5 2293.55,-98 2303.55,-101.5 2303.55,-94.5"/>
</g>
</g>
</svg>
